# xmcd
#
# Track frame offsets: 
#        150
#        24275
#        43330
#        65235
#        87163
#        109922
#        128008
#        143272
#        168554
#        184087
#        202399
#        227289
#        242522
#        259319
#
# Disc length: 3706 seconds
#
# Revision: 0
# Processed by: cddbd v1.5.2PL0 Copyright (c) Steve Scherf et al.
# Submitted via: ExactAudioCopy v0.99pb4
#
DISCID=c20e780e
DTITLE=Shota Osabe Piano Trio - Happy Coat
DYEAR=2002
DGENRE=Acid Jazz
TTITLE0=Willow Weep for Me
TTITLE1=Pretend/Somewhere Along the Way
TTITLE2=Moonglow
TTITLE3=This is All I Ask
TTITLE4=Happy Coat
TTITLE5=Can'n Leave Her Again
TTITLE6=My Foolish Heart
TTITLE7=East of the Sun
TTITLE8=Anema E Core
TTITLE9=In the Still of the Night
TTITLE10=Young and Foolish
TTITLE11=Cotton Fields
TTITLE12=Too Marvelous for Words
TTITLE13=ISaw Her Standing there
EXTD=
EXTT0=
EXTT1=
EXTT2=
EXTT3=
EXTT4=
EXTT5=
EXTT6=
EXTT7=
EXTT8=
EXTT9=
EXTT10=
EXTT11=
EXTT12=
EXTT13=
PLAYORDER=
